<?xml version="1.0" encoding="UTF-8"?>
<svg version="1.1" xmlns="http://www.w3.org/2000/svg" width="274" height="102">
<path d="M0 0 C90.42 0 180.84 0 274 0 C274 33.66 274 67.32 274 102 C183.58 102 93.16 102 0 102 C0 68.34 0 34.68 0 0 Z " fill="#FDFEFC" transform="translate(0,0)"/>
<path d="M0 0 C5.33398314 3.62756056 9.15766034 7.72520786 11 14 C12.51619875 23.54060913 9.23936589 29.97339775 4.1875 37.8125 C-2.36119426 44.36119426 -9.01507115 46.38290011 -18.15966797 46.453125 C-24.57274567 46.29252782 -28.53275356 44.51559326 -33 40 C-37.37204084 35.15273733 -38.80574948 30.29020059 -39.1484375 23.82421875 C-38.87302494 18.58413242 -37.34070523 13.68141045 -35 9 C-34.34 9 -33.68 9 -33 9 C-32.773125 8.4225 -32.54625 7.845 -32.3125 7.25 C-29.63014087 2.65167006 -24.23204951 -1.01129287 -19.1484375 -2.56640625 C-12.3163478 -3.94524617 -6.11286207 -3.46011061 0 0 Z " fill="#38B74A" transform="translate(201,52)"/>
<path d="M0 0 C2.4375 1.5625 2.4375 1.5625 3.4375 2.5625 C3.97935845 9.38411089 2.33554284 15.85362875 0.9375 22.5 C0.69902344 23.66080078 0.46054688 24.82160156 0.21484375 26.01757812 C-0.37148806 28.86715072 -0.96616573 31.71500384 -1.5625 34.5625 C-6.1825 34.5625 -10.8025 34.5625 -15.5625 34.5625 C-15.07501296 29.60638174 -14.44462473 24.76561032 -13.5 19.875 C-12.77302791 16.04089535 -12.35068129 12.48114622 -12.5625 8.5625 C-17.0175 9.0575 -17.0175 9.0575 -21.5625 9.5625 C-23.85026544 14.45749363 -24.68211645 19.60604547 -25.6875 24.875 C-25.86925781 25.80634766 -26.05101563 26.73769531 -26.23828125 27.69726562 C-26.68406279 29.9848288 -27.12387407 32.273554 -27.5625 34.5625 C-32.1825 34.5625 -36.8025 34.5625 -41.5625 34.5625 C-40.86179803 27.54088231 -39.78858356 20.63530682 -38.5625 13.6875 C-38.38460937 12.65625 -38.20671875 11.625 -38.0234375 10.5625 C-36.69183551 2.95050652 -36.69183551 2.95050652 -35.5625 -0.4375 C-30.9425 -0.4375 -26.3225 -0.4375 -21.5625 -0.4375 C-21.5625 0.2225 -21.5625 0.8825 -21.5625 1.5625 C-20.44875 1.0675 -19.335 0.5725 -18.1875 0.0625 C-11.99496436 -2.24323136 -6.14670099 -2.48024777 0 0 Z " fill="#39B84A" transform="translate(108.5625,62.4375)"/>
<path d="M0 0 C-3.39762256 4.15654169 -6.72719917 7.71323013 -11 11 C-12.68873879 12.64429829 -14.35305515 14.31384218 -16 16 C-16.61746094 16.58394531 -17.23492187 17.16789062 -17.87109375 17.76953125 C-18.83208984 18.68798828 -18.83208984 18.68798828 -19.8125 19.625 C-20.41707031 20.19476563 -21.02164063 20.76453125 -21.64453125 21.3515625 C-23.31756483 23.03050932 -23.31756483 23.03050932 -23 26 C-21.71225857 27.46702996 -21.71225857 27.46702996 -19.875 28.875 C-15.6357172 32.42559065 -11.55512895 36.11736343 -7.5 39.875 C-6.86433105 40.45878418 -6.22866211 41.04256836 -5.57373047 41.64404297 C-4.0292943 43.07488672 -2.51189849 44.53481747 -1 46 C-1 46.33 -1 46.66 -1 47 C-7.16278768 48.50645921 -12.93568171 49.24987052 -19 47 C-27.41870686 40.96440958 -34.28395235 32.82246496 -41 25 C-40.505 23.515 -40.505 23.515 -40 22 C-39.34 22 -38.68 22 -38 22 C-37.7421875 21.42926758 -37.484375 20.85853516 -37.21875 20.27050781 C-29.08383758 5.11532242 -16.87043805 -3.23050941 0 0 Z " fill="#3ABA4C" transform="translate(168,50)"/>
<path d="M0 0 C0.40274206 5.04173388 -0.55900921 7.58922994 -3.375 11.75 C-4.31472656 13.16539063 -4.31472656 13.16539063 -5.2734375 14.609375 C-7 17 -7 17 -9 19 C-9.39764263 20.98821313 -9.73775349 22.98944339 -10 25 C-5.49556115 23.6608425 -4.2335575 22.04167548 -2 18 C-1.34 18 -0.68 18 0 18 C0 17.34 0 16.68 0 16 C4.23798336 12.54722675 8.49897163 10.41257713 14 10 C15.65653354 14.96960061 12.92768581 19.31847732 11 24 C14.65316671 22.75023244 15.78065836 22.32901247 18 19 C17.979375 18.175 17.95875 17.35 17.9375 16.5 C18 14 18 14 19.2109375 12.32421875 C21 11 21 11 23.26171875 10.92578125 C24.06222656 11.05339844 24.86273438 11.18101563 25.6875 11.3125 C26.49574219 11.43238281 27.30398438 11.55226563 28.13671875 11.67578125 C28.75160156 11.78277344 29.36648438 11.88976563 30 12 C30.6171875 13.83984375 30.6171875 13.83984375 31 16 C29.125 18.5625 29.125 18.5625 27 21 C26.505 22.485 26.505 22.485 26 24 C27.98 23.34 29.96 22.68 32 22 C30.6190998 25.33717549 29.1798762 27.22301036 26 29 C23.75 28.6875 23.75 28.6875 22 28 C21.75 22.375 21.75 22.375 24 19 C23.01 18.67 22.02 18.34 21 18 C20.773125 18.556875 20.54625 19.11375 20.3125 19.6875 C18.63281165 22.6469509 16.45866715 24.66126784 14 27 C13.484375 27.61875 12.96875 28.2375 12.4375 28.875 C11.963125 29.24625 11.48875 29.6175 11 30 C8.8125 29.6875 8.8125 29.6875 7 29 C7 27.35 7 25.7 7 24 C6.236875 24.825 5.47375 25.65 4.6875 26.5 C2 29 2 29 -1 29 C-2.6875 27.5 -2.6875 27.5 -4 26 C-5.11375 27.0209375 -5.11375 27.0209375 -6.25 28.0625 C-9 30 -9 30 -11.3125 29.75 C-11.869375 29.5025 -12.42625 29.255 -13 29 C-13.495 26.525 -13.495 26.525 -14 24 C-17.14191424 25.53604696 -20.08596738 27.05731159 -23 29 C-25.5625 28.875 -25.5625 28.875 -28 28 C-29.97804615 25.5723979 -30.00823498 24.19352204 -29.875 21.0625 C-28.84353795 17.45238283 -27.68958655 15.61689502 -25 13 C-21.75 11.6875 -21.75 11.6875 -19 11 C-17.5 12 -17.5 12 -16 14 C-15.72654521 16.71846235 -15.86508715 19.25677199 -16 22 C-15.34 22 -14.68 22 -14 22 C-13.95875 21.071875 -13.9175 20.14375 -13.875 19.1875 C-12.92706649 12.45579829 -7.69647502 0 0 0 Z " fill="#46BF5B" transform="translate(231,14)"/>
<path d="M0 0 C4.62 0 9.24 0 14 0 C13.54039713 6.98596368 12.56633269 13.38958412 10.75 20.1484375 C10.08539021 22.67533931 9.55596207 25.18575962 9.0625 27.75 C7.15940791 36.29070597 3.59772391 41.34486521 -3.7109375 46.1171875 C-6.98501452 47.37988615 -10.16861232 47.28972859 -13.625 47.25 C-14.6459375 47.26160156 -14.6459375 47.26160156 -15.6875 47.2734375 C-20.74655878 47.25344122 -20.74655878 47.25344122 -23 45 C-20.11914062 44.8046875 -20.11914062 44.8046875 -17.23828125 44.609375 C-14.07794593 43.74896957 -12.34349968 42.26577167 -10 40 C-5.5548553 31.18282153 -4.49651834 20.01126269 -2.66210938 10.4074707 C-2.46037109 9.35132568 -2.25863281 8.29518066 -2.05078125 7.20703125 C-1.87200439 6.2528833 -1.69322754 5.29873535 -1.5090332 4.31567383 C-1 2 -1 2 0 0 Z " fill="#39B84B" transform="translate(36,51)"/>
<path d="M0 0 C4.62 0 9.24 0 14 0 C12.65283007 10.25921717 11.63510976 15.77759888 4 23 C5.15173355 25.46800047 6.04783565 27.04783565 8 29 C8.12280804 35.17110417 6.94288985 41.17133045 5 47 C0.71 47 -3.58 47 -8 47 C-7.39483924 31.06409987 -3.48843639 15.51137295 0 0 Z " fill="#3BB94C" transform="translate(121,50)"/>
<path d="M0 0 C1.93166016 0.01740234 1.93166016 0.01740234 3.90234375 0.03515625 C5.19269531 0.04417969 6.48304687 0.05320313 7.8125 0.0625 C8.81152344 0.07410156 9.81054688 0.08570313 10.83984375 0.09765625 C8.87494232 11.85729359 6.51673118 23.47969303 3.83984375 35.09765625 C-0.78015625 35.09765625 -5.40015625 35.09765625 -10.16015625 35.09765625 C-9.37463952 27.87625816 -8.03654395 20.78984454 -6.66015625 13.66015625 C-6.43457031 12.46455078 -6.20898438 11.26894531 -5.9765625 10.03710938 C-5.75871094 8.90337891 -5.54085937 7.76964844 -5.31640625 6.6015625 C-5.11853516 5.56845947 -4.92066406 4.53535645 -4.71679688 3.47094727 C-3.88051324 -0.0946287 -3.81283382 0.11782552 0 0 Z " fill="#39B749" transform="translate(57.16015625,61.90234375)"/>
<path d="M0 0 C3.01476557 1.76458201 5.41326678 3.82653357 7 7 C7.40141531 12.21839899 6.9955918 15.65156028 4 20 C0.04327409 23.08624621 -2.58947246 24.35159874 -7.625 24.125 C-11.18256225 23.5107884 -12.1414879 22.88161216 -15.0625 20.4375 C-17.57402103 15.9815756 -17.64128313 14.05010467 -17 9 C-14.08387875 1.8717036 -7.4866023 -1.77118424 0 0 Z " fill="#F9FCF7" transform="translate(192,62)"/>
<path d="M0 0 C1.14984375 -0.00257812 2.2996875 -0.00515625 3.484375 -0.0078125 C6.25 0.125 6.25 0.125 7.25 1.125 C7.29063832 2.79117115 7.292721 4.45888095 7.25 6.125 C4.28 7.445 1.31 8.765 -1.75 10.125 C-1.42 9.135 -1.09 8.145 -0.75 7.125 C-2.33367747 7.26704741 -3.91693318 7.41380153 -5.5 7.5625 C-6.38171875 7.64371094 -7.2634375 7.72492187 -8.171875 7.80859375 C-10.44350452 8.08738465 -12.54851823 8.51290577 -14.75 9.125 C-14.75 10.445 -14.75 11.765 -14.75 13.125 C-13.76 13.2075 -12.77 13.29 -11.75 13.375 C-6.47769074 14.11591515 -1.52164905 16.35335095 2.25 20.125 C2.75 22.4375 2.75 22.4375 2.25 25.125 C-3.34117891 31.13551733 -9.5573455 32.17214076 -17.5 32.5 C-21.24345869 32.44807963 -22.36142766 32.41417011 -25.4375 30.125 C-25.870625 29.465 -26.30375 28.805 -26.75 28.125 C-25.375 26.125 -25.375 26.125 -23.75 24.125 C-23.09 24.125 -22.43 24.125 -21.75 24.125 C-21.75 24.785 -21.75 25.445 -21.75 26.125 C-19.16626766 25.81555299 -16.58304867 25.50256043 -14 25.1875 C-13.27039063 25.10048828 -12.54078125 25.01347656 -11.7890625 24.92382812 C-8.37415558 24.50472591 -5.07396457 24.007726 -1.75 23.125 C-4.73563139 19.68657144 -6.95339641 18.48919973 -11.375 17.5 C-16.55555556 16.31944444 -16.55555556 16.31944444 -18.75 14.125 C-19.0403191 10.99197308 -18.66948671 8.12936936 -17.75 5.125 C-12.38351073 0.24637339 -6.99086093 -0.01581643 0 0 Z " fill="#3BBA4F" transform="translate(195.75,13.875)"/>
<path d="M0 0 C2.375 1.625 2.375 1.625 4 4 C4.52776087 7.54353726 4.23247375 9.48855774 2.75 12.75 C0.84613263 15.19782948 -0.02307451 16.17307625 -3 17 C-6.70392589 16.87003769 -9.08455516 16.74379893 -12 14.375 C-13.47326389 10.87599825 -12.97114747 8.62561724 -12 5 C-8.39870391 0.58550802 -5.68576814 -0.56857681 0 0 Z " fill="#39B94C" transform="translate(22,77)"/>
<path d="M0 0 C1.75101189 3.50202377 0.82381262 7.27353512 0 11 C-1.6875 14 -1.6875 14 -4 16 C-7.25 16.8125 -7.25 16.8125 -10 17 C-12.09387887 14.15232474 -13.01213303 12.5823856 -12.9375 9 C-11.5338349 4.50827167 -9.6066674 1.86211422 -5.4375 -0.375 C-3 -1 -3 -1 0 0 Z " fill="#3DBA4F" transform="translate(214,26)"/>
<path d="M0 0 C1.875 1.125 1.875 1.125 3 3 C3.53180853 6.57071442 3.47462614 8.29755331 1.4375 11.3125 C-1.76409854 13.52899129 -4.12765506 13.92959373 -8 14 C-10 13 -10 13 -11 11 C-10.92959373 7.12765506 -10.52899129 4.76409854 -8.3125 1.5625 C-5.29755331 -0.47462614 -3.57071442 -0.53180853 0 0 Z " fill="#3CB94E" transform="translate(67,44)"/>
<path d="M0 0 C1.26724763 3.80174289 0.4750819 5.3511132 -1 9 C-1.66 9.66 -2.32 10.32 -3 11 C-4.32 11 -5.64 11 -7 11 C-8.69774938 12.29352333 -10.36739286 13.62517293 -12 15 C-12.66 15 -13.32 15 -14 15 C-14.33 14.01 -14.66 13.02 -15 12 C-15.66 12 -16.32 12 -17 12 C-16.67 10.68 -16.34 9.36 -16 8 C-15.34 8 -14.68 8 -14 8 C-14 7.34 -14 6.68 -14 6 C-12.35546875 4.74609375 -12.35546875 4.74609375 -10.1875 3.4375 C-9.47980469 3.00308594 -8.77210938 2.56867187 -8.04296875 2.12109375 C-5.23094977 0.57797817 -3.22120679 0 0 0 Z " fill="#45BC59" transform="translate(245,24)"/>
<path d="M0 0 C0.99 0.33 1.98 0.66 3 1 C3 2.32 3 3.64 3 5 C4.65 4.67 6.3 4.34 8 4 C6.7251791 6.84383123 5.54862922 9.13754018 3 11 C0.8125 10.6875 0.8125 10.6875 -1 10 C-1 8.35 -1 6.7 -1 5 C-1.763125 5.825 -2.52625 6.65 -3.3125 7.5 C-6 10 -6 10 -9 10 C-9.33 8.35 -9.66 6.7 -10 5 C-10.66 5 -11.32 5 -12 5 C-12 4.34 -12 3.68 -12 3 C-10.68 2.67 -9.36 2.34 -8 2 C-8 3.32 -8 4.64 -8 6 C-3.77895001 3.27809315 -3.77895001 3.27809315 0 0 Z " fill="#36B84D" transform="translate(239,33)"/>
<path d="M0 0 C-0.33 1.32 -0.66 2.64 -1 4 C-0.34 4 0.32 4 1 4 C0.125 11.875 0.125 11.875 -1 13 C-1.804375 12.979375 -2.60875 12.95875 -3.4375 12.9375 C-6.16918103 12.70941092 -6.16918103 12.70941092 -8 15 C-9.03801177 10.67495094 -9.36561226 8.69205179 -7.25 4.6875 C-3.3255814 0 -3.3255814 0 0 0 Z " fill="#4DC162" transform="translate(210,26)"/>
<path d="M0 0 C10.32490881 2.96925482 10.32490881 2.96925482 14 7 C14.3125 9.75 14.3125 9.75 14 12 C12.02 12.99 12.02 12.99 10 14 C9.34 12.68 8.68 11.36 8 10 C8.66 10 9.32 10 10 10 C6.47872239 5.4070292 2.42252403 4.88058083 -3 4 C-2.01 2.68 -1.02 1.36 0 0 Z " fill="#46BD58" transform="translate(184,27)"/>
<path d="M0 0 C1.32 0.33 2.64 0.66 4 1 C-0.01981506 11.50990753 -0.01981506 11.50990753 -5 14 C-8.36236859 14.30473079 -11.63514862 14.23521291 -15 14 C-14.67 13.01 -14.34 12.02 -14 11 C-12.39125 11.061875 -12.39125 11.061875 -10.75 11.125 C-7.20113996 11.00670467 -5.83348294 10.93621334 -3 9 C-1.8774351 6.83718718 -1.8774351 6.83718718 -1.25 4.375 C-1.00765625 3.55773437 -0.7653125 2.74046875 -0.515625 1.8984375 C-0.34546875 1.27195312 -0.1753125 0.64546875 0 0 Z " fill="#F1F6EB" transform="translate(26,82)"/>
<path d="M0 0 C0.66 0 1.32 0 2 0 C2 0.66 2 1.32 2 2 C6.29 2 10.58 2 15 2 C14.01 3.485 14.01 3.485 13 5 C9.7421875 5.29296875 9.7421875 5.29296875 5.875 5.1875 C3.95300781 5.14689453 3.95300781 5.14689453 1.9921875 5.10546875 C1.00476563 5.07066406 0.01734375 5.03585938 -1 5 C-0.67 3.35 -0.34 1.7 0 0 Z " fill="#32B748" transform="translate(172,38)"/>
<path d="M0 0 C0 1.98 0 3.96 0 6 C-0.33 5.34 -0.66 4.68 -1 4 C-1.66 4 -2.32 4 -3 4 C-3.0825 4.86625 -3.165 5.7325 -3.25 6.625 C-4.10607746 10.47734858 -5.67368546 12.848219 -8 16 C-9 13 -9 13 -8.22265625 10.95703125 C-7.83980469 10.24933594 -7.45695313 9.54164062 -7.0625 8.8125 C-6.68222656 8.09707031 -6.30195313 7.38164062 -5.91015625 6.64453125 C-5.60980469 6.10183594 -5.30945313 5.55914062 -5 5 C-5.66 4.67 -6.32 4.34 -7 4 C-3.375 0 -3.375 0 0 0 Z " fill="#4BC160" transform="translate(231,14)"/>
<path d="M0 0 C0.33 0.99 0.66 1.98 1 3 C1.90363281 2.97679687 2.80726563 2.95359375 3.73828125 2.9296875 C4.91777344 2.91164062 6.09726563 2.89359375 7.3125 2.875 C9.07013672 2.84019531 9.07013672 2.84019531 10.86328125 2.8046875 C14 3 14 3 17 5 C12.39885754 6.53371415 7.8049918 6.55386882 3 6 C0.3125 4 0.3125 4 -1 2 C-0.67 1.34 -0.34 0.68 0 0 Z " fill="#44BF5A" transform="translate(170,40)"/>
<path d="M0 0 C0.33 0 0.66 0 1 0 C1 1.65 1 3.3 1 5 C2.423125 4.4740625 2.423125 4.4740625 3.875 3.9375 C7 3 7 3 9 4 C7.4301226 7.13975479 4.99534149 8.29676661 2 10 C-0.3125 9.9375 -0.3125 9.9375 -2 9 C-2.33 8.01 -2.66 7.02 -3 6 C-2.34 5.34 -1.68 4.68 -1 4 C-0.3574765 1.93125966 -0.3574765 1.93125966 0 0 Z " fill="#4FC163" transform="translate(220,34)"/>
<path d="M0 0 C0.33 0.99 0.66 1.98 1 3 C-0.32 4.32 -1.64 5.64 -3 7 C-1.79618552 9.49361571 -0.54571278 11.68143083 1 14 C0.01 14.66 -0.98 15.32 -2 16 C-3.80979645 13.03851491 -5.44455189 10.11089621 -7 7 C-4.69 4.69 -2.38 2.38 0 0 Z " fill="#F0F7EB" transform="translate(131,66)"/>
<path d="M0 0 C0.33 0.66 0.66 1.32 1 2 C3.31 1.34 5.62 0.68 8 0 C6.6190998 3.33717549 5.1798762 5.22301036 2 7 C-0.25 6.6875 -0.25 6.6875 -2 6 C-1.125 1.125 -1.125 1.125 0 0 Z " fill="#3FBE58" transform="translate(255,36)"/>
<path d="M0 0 C1.60031344 3.20062687 0.03173691 5.72271806 -1 9 C-2.32 9 -3.64 9 -5 9 C-5.3125 6.75 -5.3125 6.75 -5 4 C-2.5 1.6875 -2.5 1.6875 0 0 Z " fill="#E8F4E5" transform="translate(210,30)"/>
<path d="M0 0 C0.66 0.33 1.32 0.66 2 1 C1.09515208 2.15518918 0.1755794 3.29885406 -0.75 4.4375 C-1.26046875 5.07558594 -1.7709375 5.71367188 -2.296875 6.37109375 C-4.19667629 8.18810554 -5.43586908 8.60423197 -8 9 C-7.66032174 5.82966958 -7.00130809 5.00117393 -4.5625 2.8125 C-2 1 -2 1 0 0 Z " fill="#EFF5ED" transform="translate(239,30)"/>
<path d="M0 0 C0.99 0.33 1.98 0.66 3 1 C3.33 2.65 3.66 4.3 4 6 C2.02 6.99 2.02 6.99 0 8 C-0.33 7.34 -0.66 6.68 -1 6 C-2.32 6.33 -3.64 6.66 -5 7 C-4.67 6.34 -4.34 5.68 -4 5 C-3.34 5 -2.68 5 -2 5 C-1.34 3.35 -0.68 1.7 0 0 Z " fill="#35B74A" transform="translate(211,25)"/>
<path d="M0 0 C0.66 0.33 1.32 0.66 2 1 C1.2575 1.886875 0.515 2.77375 -0.25 3.6875 C-2.53640616 6.4298846 -4.77951375 9.20383213 -7 12 C-7.66 11.67 -8.32 11.34 -9 11 C-6.62245212 6.50907623 -3.6393937 3.47764287 0 0 Z " fill="#3FBC57" transform="translate(147,53)"/>
<path d="M0 0 C0.99 0.33 1.98 0.66 3 1 C3 2.98 3 4.96 3 7 C2.01 7 1.02 7 0 7 C0 6.34 0 5.68 0 5 C-1.32 5.33 -2.64 5.66 -4 6 C-4.33 5.34 -4.66 4.68 -5 4 C-3.35 3.67 -1.7 3.34 0 3 C0 2.01 0 1.02 0 0 Z " fill="#33B84B" transform="translate(217,33)"/>
<path d="M0 0 C2.64 0.66 5.28 1.32 8 2 C6.8125 3.5625 6.8125 3.5625 5 5 C2.3125 4.6875 2.3125 4.6875 0 4 C0 2.68 0 1.36 0 0 Z " fill="#42BE5A" transform="translate(203,38)"/>
<path d="M0 0 C0 1.32 0 2.64 0 4 C-0.66 4 -1.32 4 -2 4 C-2 3.34 -2 2.68 -2 2 C-6.62 2 -11.24 2 -16 2 C-16 1.67 -16 1.34 -16 1 C-13.70839646 0.83246763 -11.41671509 0.66599948 -9.125 0.5 C-7.84882812 0.4071875 -6.57265625 0.314375 -5.2578125 0.21875 C-3.50763316 0.10123196 -1.75412035 0 0 0 Z " fill="#E3F7E6" transform="translate(89,60)"/>
<path d="M0 0 C1 3 1 3 0.00390625 5.04296875 C-0.47175781 5.75066406 -0.94742188 6.45835938 -1.4375 7.1875 C-1.91058594 7.90292969 -2.38367188 8.61835938 -2.87109375 9.35546875 C-3.24363281 9.89816406 -3.61617187 10.44085938 -4 11 C-5 8 -5 8 -4.00390625 5.95703125 C-3.52824219 5.24933594 -3.05257812 4.54164062 -2.5625 3.8125 C-2.08941406 3.09707031 -1.61632812 2.38164062 -1.12890625 1.64453125 C-0.75636719 1.10183594 -0.38382813 0.55914063 0 0 Z " fill="#DDF1DC" transform="translate(227,19)"/>
<path d="M0 0 C0.33 0 0.66 0 1 0 C1 1.65 1 3.3 1 5 C1.99 5.33 2.98 5.66 4 6 C3.67 6.66 3.34 7.32 3 8 C1.68 7.67 0.36 7.34 -1 7 C-0.67 4.69 -0.34 2.38 0 0 Z " fill="#4FC162" transform="translate(239,36)"/>
<path d="M0 0 C-3.18762365 2.12508244 -5.26512223 2.5020163 -9 3 C-8.67 2.01 -8.34 1.02 -8 0 C-5.13822943 -1.43088528 -3.06624227 -0.59991697 0 0 Z " fill="#31B741" transform="translate(189,17)"/>
<path d="M0 0 C1.32 0.66 2.64 1.32 4 2 C3.01 3.98 2.02 5.96 1 8 C0.34 8 -0.32 8 -1 8 C-0.67 5.36 -0.34 2.72 0 0 Z " fill="#4ABE59" transform="translate(97,72)"/>
<path d="M0 0 C4.455 0.99 4.455 0.99 9 2 C9 2.33 9 2.66 9 3 C5.7 3 2.4 3 -1 3 C-0.67 2.01 -0.34 1.02 0 0 Z " fill="#C9EBCB" transform="translate(12,93)"/>
<path d="M0 0 C0.185625 0.9590625 0.185625 0.9590625 0.375 1.9375 C0.684375 2.9584375 0.684375 2.9584375 1 4 C1.66 4.33 2.32 4.66 3 5 C1.35 5.33 -0.3 5.66 -2 6 C-1.125 1.125 -1.125 1.125 0 0 Z " fill="#F1F5ED" transform="translate(244,32)"/>
<path d="M0 0 C1.485 0.99 1.485 0.99 3 2 C2.67 3.65 2.34 5.3 2 7 C1.01 7.33 0.02 7.66 -1 8 C-0.67 5.36 -0.34 2.72 0 0 Z " fill="#DAEED7" transform="translate(215,29)"/>
</svg>
